<?xml version="1.0" encoding="UTF-8"?>
<svg id="Layer_2" data-name="Layer 2" xmlns="http://www.w3.org/2000/svg" viewBox="0 0 132.98 106.83">
  <defs>
    <style>
      .cls-1 {
        fill: #231f20;
      }
    </style>
  </defs>
  <g id="Layer_1-2" data-name="Layer 1">
    <path class="cls-1" d="M132.98,105.81c0,.68-.17,1.03-.51,1.03-3.53,0-6.32-.06-8.38-.17l-11.79-.17-10.94.17c-1.82.11-4.39.17-7.69.17-.23,0-.34-.34-.34-1.03s.11-1.03.34-1.03c3.87,0,6.75-.31,8.63-.94,1.88-.62,3.13-1.74,3.76-3.33.62-1.59.83-4.1.6-7.52l-3.08-77.77-38.97,90.42c-.23.46-.68.68-1.37.68-.57,0-1.08-.23-1.54-.68L19.66,16.24l-1.54,71.96c-.11,6.04.91,10.31,3.08,12.82,2.16,2.51,5.98,3.76,11.45,3.76.23,0,.34.34.34,1.03s-.11,1.03-.34,1.03c-3.19,0-5.64-.06-7.35-.17l-9.23-.17-8.89.17c-1.6.11-3.88.17-6.84.17-.23,0-.34-.34-.34-1.03s.11-1.03.34-1.03c4.79,0,8.23-1.28,10.34-3.85,2.11-2.56,3.22-6.81,3.33-12.73l1.54-79.31C12.14,4.33,7.46,2.05,1.54,2.05c-.23,0-.34-.34-.34-1.03s.11-1.03.34-1.03l6.32.17c1.14.11,2.74.17,4.79.17s3.79-.06,5.21-.17c1.42-.11,2.53-.17,3.33-.17,1.48,0,2.71.54,3.67,1.62.97,1.08,2.36,3.5,4.19,7.26l38.12,80.34L104.44,4.27c1.25-2.85,2.96-4.27,5.13-4.27.57,0,1.39.06,2.48.17,1.08.11,2.53.17,4.36.17l8.03-.17c1.25-.11,3.13-.17,5.64-.17.34,0,.51.34.51,1.03s-.17,1.03-.51,1.03c-5.7,0-9.77.83-12.22,2.48-2.45,1.65-3.62,4.76-3.5,9.32l3.42,79.14c.11,3.53.54,6.1,1.28,7.69.74,1.6,2.08,2.68,4.02,3.25,1.94.57,5.07.85,9.4.85.34,0,.51.34.51,1.03Z"/>
  </g>
</svg>